<?xml version="1.0" encoding="UTF-8" standalone="no"?>
<svg width="176px" height="34px" viewBox="0 0 176 34" version="1.1" xmlns="http://www.w3.org/2000/svg" xmlns:xlink="http://www.w3.org/1999/xlink">
    <!-- Generator: Sketch 40.3 (33839) - http://www.bohemiancoding.com/sketch -->
    <title>ambientia-logo</title>
    <desc>Created with Sketch.</desc>
    <defs></defs>
    <g id="Page-1" stroke="none" stroke-width="1" fill="none" fill-rule="evenodd">
        <g id="Front-Page" transform="translate(-462.000000, -276.000000)" fill="#FF2457">
            <g id="ambientia-logo" transform="translate(462.000000, 276.332651)">
                <g id="Layer_1">
                    <g id="Group">
                        <path d="M149.638667,8.16578125 C148.584873,8.16578125 147.882344,8.16578125 147.882344,9.20734375 L147.882344,31.948125 C147.882344,32.9896875 148.760505,32.9896875 149.638667,32.9896875 L149.638667,32.9896875 C150.69246,32.9896875 151.394989,32.9896875 151.394989,31.948125 L151.394989,9.20734375 C151.394989,8.16578125 150.516828,8.16578125 149.638667,8.16578125" id="Shape"></path>
                        <path d="M81.3177261,7.81859375 C80.2639327,7.81859375 79.5614037,7.81859375 79.5614037,8.86015625 L79.5614037,31.948125 C79.5614037,32.9896875 80.4395649,32.9896875 81.3177261,32.9896875 L81.3177261,32.9896875 C82.3715195,32.9896875 83.0740485,32.9896875 83.0740485,31.948125 L83.0740485,8.86015625 C83.2496807,7.81859375 82.3715195,7.81859375 81.3177261,7.81859375" id="Shape"></path>
                        <path d="M168.255684,8.16578125 L160.000969,8.16578125 C158.947175,8.16578125 158.947175,8.16578125 158.595911,8.86015625 L158.069014,11.116875 C157.893382,11.4640625 158.244646,11.6376563 158.420278,11.6376563 L168.255684,11.6376563 C169.836374,11.6376563 170.714535,11.9848438 171.241432,12.505625 C171.768329,13.0264063 172.119593,13.7207813 172.119593,14.9359375 L172.119593,16.671875 L160.703498,16.671875 C159.29844,16.671875 158.244646,16.671875 157.366485,17.0190625 C156.663956,17.1926563 155.961427,17.5398438 155.43453,17.8870313 C154.556369,18.5814063 154.029473,19.6229688 153.85384,20.4909375 C153.678208,21.5325 153.678208,22.4004688 153.678208,23.615625 L153.678208,26.9139063 C153.678208,27.9554688 153.85384,29.3442188 154.732001,30.7329688 C155.610163,31.948125 157.190853,32.9896875 159.29844,32.9896875 L159.474072,32.9896875 L170.012006,32.9896875 C170.890167,32.9896875 171.768329,32.8160938 172.470857,32.6425 C173.700283,32.2953125 174.754077,31.25375 175.105341,30.2121875 C175.632238,28.9970313 175.80787,27.781875 175.80787,26.2195313 L175.80787,15.1095313 C175.80787,13.2 175.105341,11.2904688 173.700283,10.0753125 C172.119593,8.6865625 170.363271,8.16578125 168.255684,8.16578125 L168.255684,8.16578125 Z M157.893382,20.4909375 C158.420278,20.3173437 159.29844,20.3173437 160.527865,20.3173437 L160.527865,20.3173437 L171.943961,20.3173437 L171.943961,26.2195312 C171.943961,27.9554687 171.592696,28.8234375 171.417064,28.9970312 C171.241432,29.170625 171.241432,29.170625 170.890167,29.3442187 C170.714535,29.5178125 170.187638,29.5178125 169.660742,29.5178125 L159.122807,29.5178125 C157.893382,29.5178125 157.71775,29.170625 157.366485,28.8234375 C157.015221,28.47625 157.015221,27.781875 157.015221,27.0875 L157.015221,23.7892187 C157.015221,22.92125 157.015221,22.0532812 157.190853,21.5325 C157.190853,20.6645312 157.893382,20.4909375 157.893382,20.4909375 L157.893382,20.4909375 Z" id="Shape"></path>
                        <path d="M69.1991017,8.16578125 L64.1057668,8.16578125 C62.8763411,8.16578125 61.6469155,8.339375 60.593122,8.6865625 C60.4174898,8.86015625 60.0662253,8.86015625 59.8905931,9.03375 L59.8905931,1.395625 C59.8905931,0.70125 59.7149608,0.52765625 58.8367997,0.70125 L56.7292128,1.0484375 C56.3779483,1.22203125 56.2023161,1.56921875 56.2023161,2.26359375 L56.2023161,18.060625 L56.2023161,24.1364063 C56.2023161,26.9139063 56.5535806,28.9970313 57.9586385,30.7329688 C58.6611674,31.6009375 59.7149608,32.1217188 60.593122,32.4689063 C61.6469155,32.8160938 62.8763411,32.9896875 64.1057668,32.9896875 L68.8478372,32.9896875 L68.8478372,32.9896875 C71.3066885,32.9896875 73.5899076,32.4689063 75.34623,30.9065625 C76.9269201,29.3442188 77.6294491,26.9139063 77.6294491,24.1364063 L77.6294491,17.0190625 C77.6294491,14.2415625 76.9269201,11.81125 75.34623,10.2489063 C73.7655399,8.6865625 71.4823208,8.16578125 69.1991017,8.16578125 L69.1991017,8.16578125 Z M74.1168043,24.1364062 C74.1168043,26.393125 73.5899076,27.6082812 72.8873787,28.3026562 C72.1848497,28.9970312 71.1310563,29.5178125 69.0234694,29.5178125 L64.281399,29.5178125 C63.2276056,29.5178125 62.5250766,29.3442187 61.9981799,29.170625 C61.1200187,28.8234375 60.9443865,28.6498437 60.593122,27.9554687 C60.2418576,27.2610937 60.0662253,26.0459375 60.0662253,24.31 L60.0662253,17.36625 C60.0662253,15.1095312 60.4174898,13.7207812 60.9443865,13.0264062 C61.295651,12.6792187 61.4712832,12.505625 61.9981799,12.3320312 C62.5250766,12.1584375 63.2276056,11.9848437 64.281399,11.9848437 L69.1991017,11.9848437 C71.3066885,11.9848437 72.360482,12.505625 73.0630109,13.0264062 C73.7655399,13.7207812 74.2924366,14.7623437 74.2924366,17.1926562 L74.1168043,24.1364062 L74.1168043,24.1364062 Z" id="Shape"></path>
                        <path d="M106.433136,30.0385938 C106.433136,30.0385938 106.257504,29.3442188 105.379343,29.3442188 L93.787615,29.3442188 C91.6800281,29.3442188 90.4506025,28.8234375 89.9237057,28.3026563 C89.7480735,28.1290625 89.7480735,28.1290625 89.5724413,27.9554688 C95.7195696,25.69875 99.5834788,24.4835938 102.04233,23.2684375 C103.271756,22.5740625 104.325549,22.0532813 105.20371,21.0117188 C105.906239,19.9701563 106.433136,18.755 106.433136,17.7134375 L106.433136,17.5398438 L106.433136,11.4640625 C106.433136,9.03375 105.379343,8.16578125 102.569227,8.16578125 L93.085086,8.16578125 C89.9237057,8.16578125 85.0060031,10.2489063 85.0060031,15.6303125 L85.0060031,25.5251563 C85.0060031,30.2121875 89.0455446,32.8160938 92.9094538,32.8160938 L105.730607,32.8160938 C106.257504,32.8160938 106.784401,32.8160938 106.608768,32.1217187 L106.433136,30.0385938 L106.433136,30.0385938 Z M88.6942801,24.1364063 L88.6942801,15.8039063 C88.6942801,13.3735938 90.6262347,11.81125 92.7338215,11.81125 L94.4901439,11.81125 L102.744859,11.81125 L102.744859,17.5398438 C102.744859,18.2342188 102.569227,18.5814063 102.217962,18.9285938 C101.866698,19.449375 100.637272,20.14375 98.3540532,21.0117188 C96.0708341,21.8796875 92.9094538,22.92125 88.5186478,24.4835938 C88.6942801,24.31 88.6942801,24.31 88.6942801,24.1364063 L88.6942801,24.1364063 Z" id="Shape"></path>
                        <path d="M132.426707,1.0484375 C132.075443,1.22203125 131.899811,1.395625 131.899811,2.09 L131.899811,24.1364063 C131.899811,26.9139063 132.60234,29.3442188 134.18303,30.9065625 C135.76372,32.4689063 138.046939,32.9896875 140.681422,32.9896875 L140.681422,32.9896875 L145.247861,32.9896875 C145.599125,32.9896875 145.774757,32.6425 145.774757,32.4689063 L145.247861,30.0385938 C145.247861,30.0385938 144.896596,29.3442188 144.545332,29.5178125 L140.681422,29.5178125 C138.573836,29.5178125 137.34441,28.9970313 136.817513,28.47625 C136.114984,27.781875 135.588088,26.5667188 135.588088,24.31 L135.588088,19.9701563 L135.588088,11.9848438 L140.857055,11.9848438 C141.208319,11.9848438 141.383951,11.9848438 141.383951,11.6376563 L142.08648,9.03375 C142.262113,8.6865625 141.910848,8.51296875 141.032687,8.51296875 L135.588088,8.51296875 L135.588088,1.0484375 C135.588088,0.52765625 135.412455,0.3540625 135.061191,0.52765625 C135.061191,0.52765625 132.777972,0.87484375 132.426707,1.0484375" id="Shape"></path>
                        <path d="M121.186244,8.16578125 L117.322335,8.16578125 C114.863484,8.16578125 112.580264,8.6865625 110.823942,10.2489063 C109.243252,11.81125 108.540723,14.2415625 108.540723,17.0190625 L108.540723,31.948125 C108.540723,32.9896875 109.418884,32.9896875 110.297045,32.9896875 C111.350839,32.9896875 112.053368,32.9896875 112.053368,31.948125 L112.053368,31.948125 L112.053368,17.0190625 C112.053368,14.7623438 112.580264,13.5471875 113.282793,12.8528125 C113.985322,12.1584375 115.214748,11.81125 117.146703,11.81125 L121.186244,11.81125 C123.293831,11.81125 124.523257,12.3320313 125.050153,12.8528125 C125.752682,13.5471875 126.279579,14.7623438 126.279579,17.0190625 L126.279579,31.948125 C126.279579,32.9896875 127.15774,32.9896875 128.035901,32.9896875 L128.035901,32.9896875 C129.089695,32.9896875 129.792224,32.9896875 129.792224,31.948125 L129.792224,17.0190625 C129.792224,14.2415625 129.089695,11.81125 127.509005,10.2489063 C125.928314,8.6865625 123.645095,8.16578125 121.186244,8.16578125" id="Shape"></path>
                        <path d="M54.0947292,15.283125 C54.0947292,13.2 53.5678325,11.2904687 52.1627746,9.90171875 C50.7577167,8.51296875 49.0013943,7.9921875 46.8938075,8.16578125 L44.4349562,8.16578125 C40.9223114,8.16578125 40.0441502,9.03375 39.165989,10.0753125 C38.1121956,9.03375 37.2340344,8.16578125 33.8970219,8.16578125 L31.4381706,8.16578125 C29.5062159,8.16578125 27.5742613,8.6865625 26.1692034,9.90171875 C24.7641455,11.2904687 24.2372488,13.2 24.2372488,15.283125 L24.2372488,31.7745312 C24.2372488,32.4689062 24.4128811,32.8160937 25.11541,32.8160937 L26.8717324,32.8160937 C27.3986291,32.8160937 27.9255258,32.4689062 27.9255258,31.7745312 L27.9255258,15.283125 C27.9255258,13.7207812 28.2767903,12.8528125 28.803687,12.505625 C29.3305837,11.9848437 30.0331127,11.6376562 31.4381706,11.6376562 L33.8970219,11.6376562 C36.5315055,11.6376562 37.4096666,13.5471875 37.4096666,14.4151562 L37.4096666,14.9359375 L37.4096666,31.7745312 C37.4096666,32.8160937 38.2878278,32.8160937 39.165989,32.8160937 L39.3416213,32.8160937 C40.3954147,32.8160937 41.0979436,32.8160937 41.0979436,31.7745312 L41.0979436,14.9359375 L41.0979436,14.4151562 C41.0979436,13.0264062 42.1517371,11.4640625 44.6105884,11.4640625 L47.0694397,11.4640625 C48.4744976,11.4640625 49.1770266,11.81125 49.7039233,12.3320312 C50.23082,12.8528125 50.5820845,13.5471875 50.5820845,15.1095312 L50.5820845,31.6009375 C50.5820845,32.6425 51.4602457,32.6425 52.3384069,32.6425 L52.3384069,32.6425 C53.3922003,32.6425 54.0947292,32.2953125 54.0947292,31.4273437 C54.0947292,31.6009375 54.0947292,15.283125 54.0947292,15.283125" id="Shape"></path>
                        <path d="M81.4933583,0.3540625 C80.4395649,0.3540625 79.5614037,0.3540625 79.5614037,1.0484375 L79.5614037,2.95796875 C79.5614037,3.99953125 80.2639327,3.8259375 81.3177261,3.8259375 L81.3177261,3.8259375 C82.1958873,3.8259375 83.0740485,3.99953125 83.0740485,2.95796875 L83.0740485,1.0484375 C83.2496807,0.3540625 82.5471518,0.52765625 81.4933583,0.3540625" id="Shape"></path>
                        <path d="M149.638667,0.3540625 C148.584873,0.3540625 147.706712,0.18046875 147.706712,1.0484375 L147.706712,3.1315625 C147.706712,3.8259375 148.409241,3.99953125 149.463034,3.99953125 L149.463034,3.99953125 C150.341196,3.99953125 151.219357,3.8259375 151.219357,3.1315625 L151.219357,1.22203125 C151.394989,0.3540625 150.516828,0.52765625 149.638667,0.3540625" id="Shape"></path>
                        <path d="M14.753108,8.16578125 L6.4983928,8.16578125 C5.44459937,8.16578125 5.44459937,8.16578125 5.0933349,8.86015625 L4.56643818,11.116875 C4.39080594,11.4640625 4.74207042,11.6376563 4.91770266,11.6376563 L14.753108,11.6376563 C16.3337981,11.6376563 17.2119593,11.9848438 17.738856,12.505625 C18.2657527,13.0264063 18.6170172,13.7207813 18.6170172,14.9359375 L18.6170172,16.671875 L7.20092175,16.671875 C5.79586385,16.671875 4.74207042,16.671875 3.86390923,17.0190625 C3.16138028,17.1926563 2.45885133,17.5398438 1.93195462,17.8870313 C1.05379343,18.5814063 0.526896713,19.6229688 0.351264476,20.4909375 C0,21.5325 0,22.4004688 0,23.615625 L0,26.9139063 C0,27.9554688 0.175632238,29.3442188 1.05379343,30.7329688 C1.93195462,31.948125 3.51264476,32.9896875 5.62023161,32.9896875 L5.79586385,32.9896875 L16.3337981,32.9896875 C17.2119593,32.9896875 18.0901205,32.8160938 18.7926494,32.6425 C20.0220751,32.2953125 21.0758685,31.25375 21.427133,30.2121875 C21.9540297,28.9970313 22.129662,27.781875 22.129662,26.2195313 L22.129662,15.1095313 C22.129662,13.2 21.427133,11.2904688 20.0220751,10.0753125 C18.7926494,8.6865625 16.8606948,8.16578125 14.753108,8.16578125 L14.753108,8.16578125 Z M4.56643818,20.4909375 C5.0933349,20.14375 5.97149608,20.14375 7.20092175,20.14375 L7.20092175,20.14375 L18.6170172,20.14375 L18.6170172,26.0459375 C18.6170172,27.781875 18.2657527,28.6498438 18.0901205,28.8234375 C17.9144883,28.9970313 17.9144883,28.9970313 17.5632238,29.170625 C17.3875915,29.3442188 16.8606948,29.3442188 16.3337981,29.3442188 L5.79586385,29.3442188 C4.56643818,29.3442188 4.39080594,28.9970313 4.03954147,28.6498438 C3.68827699,28.3026563 3.68827699,27.6082813 3.68827699,26.9139063 L3.51264476,23.615625 C3.51264476,22.7476563 3.51264476,21.8796875 3.68827699,21.3589063 C3.86390923,20.6645313 4.56643818,20.4909375 4.56643818,20.4909375 L4.56643818,20.4909375 Z" id="Shape"></path>
                    </g>
                </g>
            </g>
        </g>
    </g>
</svg>
